<svg xmlns="http://www.w3.org/2000/svg" xmlns:xlink="http://www.w3.org/1999/xlink" viewBox="0 0 390.53 326.55"><defs><style>.cls-1{fill:url(#New_Gradient_Swatch_1);}.cls-2{fill:url(#New_Gradient_Swatch_1-2);}.cls-3{fill:url(#New_Gradient_Swatch_1-3);}.cls-4{fill:url(#New_Gradient_Swatch_1-4);}.cls-5{fill:url(#New_Gradient_Swatch_1-5);}</style><linearGradient id="New_Gradient_Swatch_1" x1="15.83" y1="81.95" x2="118.53" y2="184.66" gradientUnits="userSpaceOnUse"><stop offset="0" stop-color="#ff8e3c"/><stop offset="1" stop-color="#d9376e"/></linearGradient><linearGradient id="New_Gradient_Swatch_1-2" x1="86.21" y1="70.73" x2="87.67" y2="70.73" xlink:href="#New_Gradient_Swatch_1"/><linearGradient id="New_Gradient_Swatch_1-3" x1="270.43" y1="7.28" x2="373.13" y2="109.98" xlink:href="#New_Gradient_Swatch_1"/><linearGradient id="New_Gradient_Swatch_1-4" x1="262.76" y1="176.98" x2="366.06" y2="73.67" xlink:href="#New_Gradient_Swatch_1"/><linearGradient id="New_Gradient_Swatch_1-5" x1="0" y1="196.65" x2="390.53" y2="196.65" xlink:href="#New_Gradient_Swatch_1"/></defs><g id="Layer_2" data-name="Layer 2"><g id="OBJECTS"><path class="cls-1" d="M117.48,185.7h0a19.87,19.87,0,0,1-28.92,0L16.88,111a21.93,21.93,0,0,1,0-30.13h0a19.87,19.87,0,0,1,28.92,0l71.68,74.66A21.93,21.93,0,0,1,117.48,185.7Z"/><path class="cls-2" d="M45.8,111l71.68-74.66a21.93,21.93,0,0,0,0-30.13,19.87,19.87,0,0,0-28.92,0L16.88,80.9a21.93,21.93,0,0,0,0,30.13l29.2,30.42a21.93,21.93,0,0,1-.31-30.4Z"/><path class="cls-3" d="M271.48,6.24h0a19.87,19.87,0,0,1,28.92,0L372.08,80.9a21.93,21.93,0,0,1,0,30.13h0a19.87,19.87,0,0,1-28.92,0L271.48,36.37A21.93,21.93,0,0,1,271.48,6.24Z"/><path class="cls-4" d="M372.08,80.91l-29.2-30.43a21.94,21.94,0,0,1,.31,30.41l0,0-71.68,74.66a21.93,21.93,0,0,0,0,30.13,19.87,19.87,0,0,0,28.92,0L372.08,111A21.93,21.93,0,0,0,372.08,80.91Z"/><path class="cls-5" d="M152.83,119.51c-.54,0-1.49-.08-2.83-.22s-2.33-.18-3-.18A57.64,57.64,0,0,0,128.94,122a19,19,0,0,1-5.15,1.21,3.73,3.73,0,0,1-3.25-1.7,5.89,5.89,0,0,1-1.16-3.27A21.57,21.57,0,0,1,120,115a63.35,63.35,0,0,0,1.26-7.46L124.33,78a51.3,51.3,0,0,1,.67-5.44,4.14,4.14,0,0,1,1.48-2.24,4.9,4.9,0,0,1,3.25-1,3.86,3.86,0,0,1,2.86,1.28,4,4,0,0,1,1.23,2.78,32.82,32.82,0,0,1-.61,4.83q-.89,5-2.49,19.13t-1.61,15c0,.69.12,1,.34,1a64.26,64.26,0,0,0,7.14-1,50.54,50.54,0,0,1,5.53-.6,64.22,64.22,0,0,0,11.19-1.21,7.56,7.56,0,0,1,1.5-.25,3.8,3.8,0,0,1,2.94,1.16,4,4,0,0,1,1.06,2.75,4.63,4.63,0,0,1-1.83,3.83A6.53,6.53,0,0,1,152.83,119.51Z"/><path class="cls-5" d="M198.47,108.88a2.3,2.3,0,0,1,2.59,2.63q0,3.27-7.52,8T179,124.34a17.79,17.79,0,0,1-11.44-4.23q-5.22-4.23-5.22-12.34t5.46-18.31a51.8,51.8,0,0,1,13.54-16.38q8.07-6.33,15.75-6.33a9.66,9.66,0,0,1,7.3,2.84,9.3,9.3,0,0,1,2.73,6.65,20.2,20.2,0,0,1-.61,5.92,6,6,0,0,1-2.63,3.07,6.61,6.61,0,0,1-3.28,1.28,3.08,3.08,0,0,1-2.25-1,3.49,3.49,0,0,1-1-2.59,14,14,0,0,1,.59-3.31A15.45,15.45,0,0,0,198.5,76c0-1.64-.53-2.46-1.6-2.46q-4.92,0-11,5.48a49.24,49.24,0,0,0-10.46,13.6q-4.35,8.11-4.35,14.34a10.75,10.75,0,0,0,2.29,7A8.05,8.05,0,0,0,180,116.8a19.74,19.74,0,0,0,6.53-1.45,29.21,29.21,0,0,0,7.29-3.95Q197.24,108.88,198.47,108.88Z"/><path class="cls-5" d="M260.59,82.07l-11.37,16q-7.89,11.48-12.15,11.48c-1.32,0-2.49-.79-3.52-2.36a33.13,33.13,0,0,1-3.14-7.2q-1.6-4.84-2.25-7.33a38.55,38.55,0,0,0-2-6.54l-1.74,9.25c-.54,3-1.1,5.73-1.67,8.23s-1.19,5.5-1.86,9-1.09,6.15-1.25,7.93q-.06.88-1.62,1.92a5,5,0,0,1-2.37,1,4.13,4.13,0,0,1-3.06-1.58,4.7,4.7,0,0,1-1.41-3,36,36,0,0,1,1.36-8.68Q218.2,88.65,219,83.07a68.34,68.34,0,0,0,.8-9.28,3.29,3.29,0,0,1,1.6-3,7.64,7.64,0,0,1,4.2-1c.93,0,1.87.64,2.8,1.92a11.13,11.13,0,0,1,1.84,3.56l0-.07L235,89q2.84,8.28,3.79,10.52a178.15,178.15,0,0,0,10.92-14.47q7.25-10.28,9.9-13.22t3.76-3A6.64,6.64,0,0,1,267,70.37c1.36,1,2,1.8,2,2.49q0,.78-1.33,10.7-.92,7-1.67,15.68c-.5,5.78-.75,9.2-.75,10.24a17.12,17.12,0,0,0,.48,4,13.64,13.64,0,0,1,.34,2.95c0,2.34-.39,3.94-1.18,4.8a4.7,4.7,0,0,1-3.63,1.28q-4.47,0-4.47-7A136.15,136.15,0,0,1,258,99.29q1.16-9.54,2.11-14.66C260.37,83.4,260.52,82.54,260.59,82.07Z"/><path class="cls-5" d="M16.21,280.87,9.12,303.23H0l23.2-71.11H33.83l23.3,71.11H47.71l-7.29-22.36Zm22.39-7.18-6.69-20.47c-1.52-4.64-2.53-8.86-3.55-13h-.2c-1,4.22-2.13,8.55-3.44,12.88L18,273.69Z"/><path class="cls-5" d="M100.6,301.33a31.69,31.69,0,0,1-14.09,3c-14.79,0-24.41-10.45-24.41-26.06s10.33-27.12,26.34-27.12a28.73,28.73,0,0,1,12.36,2.64l-2,7.17a20.06,20.06,0,0,0-10.33-2.42c-11.25,0-17.32,8.65-17.32,19.31,0,11.81,7.29,19.09,17,19.09a24.55,24.55,0,0,0,10.94-2.53Z"/><path class="cls-5" d="M138.18,303.23l-.71-6.43h-.3a18.06,18.06,0,0,1-15,7.6c-9.92,0-15-7.29-15-14.67,0-12.35,10.54-19.1,29.48-19v-1.06c0-4.22-1.11-11.82-11.14-11.82a23.76,23.76,0,0,0-12.77,3.8l-2-6.12a29.52,29.52,0,0,1,16.1-4.54c15,0,18.64,10.66,18.64,20.9V291a75.64,75.64,0,0,0,.81,12.24Zm-1.32-26.06c-9.72-.21-20.76,1.58-20.76,11.5,0,6,3.85,8.87,8.4,8.87A12.25,12.25,0,0,0,136.36,289a10.14,10.14,0,0,0,.5-2.95Z"/><path class="cls-5" d="M202.2,228.32V290c0,4.54.11,9.71.41,13.19h-8l-.41-8.86H194c-2.74,5.7-8.71,10-16.72,10-11.85,0-21-10.45-21-26-.1-17,10-27.44,22-27.44,7.49,0,12.56,3.7,14.79,7.81h.2V228.32ZM193.29,273a16.68,16.68,0,0,0-.41-3.9c-1.31-5.91-6.18-10.76-12.86-10.76-9.22,0-14.69,8.44-14.69,19.73,0,10.34,4.86,18.88,14.49,18.88,6,0,11.44-4.11,13.06-11.08a16.42,16.42,0,0,0,.41-4Z"/><path class="cls-5" d="M222,279.39c.2,12.55,7.9,17.72,16.82,17.72a31.22,31.22,0,0,0,13.57-2.63l1.52,6.64c-3.14,1.48-8.51,3.17-16.31,3.17-15.09,0-24.11-10.34-24.11-25.75s8.71-27.54,23-27.54c16,0,20.26,14.67,20.26,24.06a36.53,36.53,0,0,1-.31,4.33Zm26.14-6.65c.1-5.91-2.33-15.09-12.36-15.09-9,0-13,8.65-13.68,15.09Z"/><path class="cls-5" d="M267.75,266c0-5.28-.1-9.6-.41-13.83h7.8l.41,8.24h.3c2.74-4.86,7.3-9.4,15.4-9.4,6.69,0,11.75,4.23,13.88,10.24h.2a20.87,20.87,0,0,1,5.47-6.65A16.31,16.31,0,0,1,321.64,251c6.48,0,16.11,4.44,16.11,22.16v30.07H329V274.32c0-9.81-3.45-15.72-10.64-15.72-5.07,0-9,3.91-10.54,8.44a16.11,16.11,0,0,0-.71,4.65v31.54h-8.71v-30.6c0-8.12-3.44-14-10.23-14-5.57,0-9.62,4.64-11,9.29a13.16,13.16,0,0,0-.71,4.53v30.81h-8.71Z"/><path class="cls-5" d="M354.16,252.16l10.74,30.18c1.12,3.38,2.33,7.39,3.14,10.45h.2c.92-3.06,1.93-7,3.14-10.66l9.73-30h9.42l-13.37,36.41c-6.38,17.51-10.74,26.48-16.82,32a23.73,23.73,0,0,1-10.94,6l-2.23-7.81a23.11,23.11,0,0,0,7.8-4.53,28.13,28.13,0,0,0,7.5-10.34,7,7,0,0,0,.71-2.22,8.3,8.3,0,0,0-.61-2.43l-18.13-47.06Z"/></g></g></svg>